#!OML:ASF F:\VICON\USERDATA\INSTALL\rory3\rory3.ASF
:FULLY-SPECIFIED
:DEGREES
786
root 5.14899 15.4406 -10.7622 37.1556 -22.4328 -2.67721
lowerback -12.9209 -0.374367 -12.2057
upperback -16.1608 -0.542909 -6.48443
thorax -10.7122 0.485449 -0.388796
lowerneck -9.83907 5.99349 0.791102
upperneck 19.3247 5.82412 11.827
head 7.20615 3.91639 4.25397
rclavicle -1.43125e-014 -2.22639e-014
rhumerus 168.202 4.31818 -176.239
rradius 14.2596
rwrist 143.436
rhand -12.5126 8.49413
rfingers 7.12502
rthumb 13.563 -21.0441
lclavicle -1.43125e-014 -2.22639e-014
lhumerus 0.329718 16.8055 -5.62227
lradius 20.059
lwrist -38.4675
lhand 3.88392 34.0244
lfingers 7.12502
lthumb 29.3049 61.7353
rfemur -13.246 5.26215 22.9101
rtibia 32.8661
rfoot -47.5679 -34.4284
rtoes 54.986
lfemur -71.8341 17.7271 -40.7162
ltibia 62.1876
lfoot -32.3155 15.0339
ltoes -35.0529
787
root 5.16153 15.4733 -10.765 37.1489 -22.9944 -2.7637
lowerback -12.7677 -0.293976 -12.3045
upperback -16.1886 -0.467648 -6.47756
thorax -10.8468 0.537106 -0.329825
lowerneck -9.73266 5.9394 0.802645
upperneck 19.6573 5.71316 11.865
head 7.30146 3.87274 4.26666
rclavicle 1.44119e-014 -2.22639e-014
rhumerus 168.085 3.24727 -176.322
rradius 14.3134
rwrist 142.693
rhand -12.3858 8.57434
rfingers 7.12502
rthumb 13.6852 -20.9557
lclavicle 1.44119e-014 -2.22639e-014
lhumerus -0.0814241 16.5788 -5.54398
lradius 19.8496
lwrist -39.0063
lhand 3.80753 33.3087
lfingers 7.12502
lthumb 29.2319 61.0323
rfemur -13.3134 4.77007 23.2146
rtibia 32.8024
rfoot -46.9832 -35.9705
rtoes 53.3286
lfemur -71.0174 16.6869 -38.8218
ltibia 62.2406
lfoot -32.6795 11.2178
ltoes -32.666
788
root 5.17991 15.4534 -10.7857 36.9918 -23.5267 -2.86494
lowerback -12.5408 -0.187837 -12.3048
upperback -16.0986 -0.360398 -6.50498
thorax -10.8734 0.586132 -0.353586
lowerneck -9.86759 5.88113 0.861941
upperneck 19.9708 5.58965 11.8443
head 7.43965 3.82666 4.26129
rclavicle -5.83433e-014 5.40694e-014
rhumerus 168.123 2.40026 -176.467
rradius 14.1314
rwrist 141.944
rhand -12.0875 8.64634
rfingers 7.12502
rthumb 13.9727 -20.8641
lclavicle -5.83433e-014 5.40694e-014
lhumerus -0.402765 16.2922 -5.40435
lradius 19.7536
lwrist -38.716
lhand 3.69696 32.9559
lfingers 7.12502
lthumb 29.1263 60.6978
rfemur -13.3081 4.29487 23.5239
rtibia 32.9548
rfoot -47.1914 -36.3717
rtoes 52.631
lfemur -69.9873 15.5965 -37.1062
ltibia 62.3002
lfoot -32.4052 9.56089
ltoes -35.2213
789
root 5.19779 15.4408 -10.8125 36.8183 -24.2127 -2.89587
lowerback -12.343 -0.0820036 -12.477
upperback -15.8429 -0.220105 -6.60164
thorax -10.6922 0.654612 -0.350118
lowerneck -10.3939 5.8637 1.1364
upperneck 20.0285 5.51133 11.6937
head 7.5765 3.80862 4.18698
rclavicle -4.32854e-014 6.67916e-014
rhumerus 168.183 1.68193 -176.739
rradius 13.9558
rwrist 140.998
rhand -12.0396 8.49602
rfingers 7.12502
rthumb 14.0188 -21.0112
lclavicle -4.32854e-014 6.67916e-014
lhumerus -0.709988 16.9653 -5.2806
lradius 19.5569
lwrist -39.1531
lhand 3.55381 32.3588
lfingers 7.12502
lthumb 28.9896 60.1243
rfemur -13.3623 4.22576 23.6564
rtibia 33.1996
rfoot -48.91 -34.7692
rtoes 53.4726
lfemur -68.9946 14.4595 -35.5488
ltibia 62.2512
lfoot -31.7484 9.55329
ltoes -40.2881
790
root 5.21403 15.4424 -10.8359 36.676 -24.9931 -2.72642
lowerback -12.1474 0.0403557 -12.8514
upperback -15.6291 -0.0646671 -6.83661
thorax -10.5818 0.743617 -0.395802
lowerneck -10.9166 5.81994 1.55017
upperneck 20.126 5.35925 11.5587
head 7.7359 3.76816 4.09054
rclavicle 2.19657e-014 1.04958e-013
rhumerus 168.329 0.317178 -176.99
rradius 13.9384
rwrist 139.034
rhand -12.0322 8.46622
rfingers 7.12502
rthumb 14.0259 -21.0405
lclavicle 2.19657e-014 1.04958e-013
lhumerus -0.788845 16.2948 -5.14404
lradius 19.84
lwrist -38.3076
lhand 4.53625 33.8346
lfingers 7.12502
lthumb 29.9275 61.435
rfemur -13.6109 4.03226 23.468
rtibia 33.5038
rfoot -50.8794 -33.1301
rtoes 53.8182
lfemur -68.3153 13.1613 -34.1405
ltibia 62.2355
lfoot -31.408 8.91641
ltoes -42.7523
791
root 5.23184 15.4358 -10.8454 36.4312 -25.6123 -2.58073
lowerback -11.9939 0.168979 -13.0273
upperback -15.4638 0.0934373 -7.03041
thorax -10.4942 0.81775 -0.504238
lowerneck -10.936 5.77934 1.64203
upperneck 20.2122 5.2477 11.6858
head 7.77519 3.73587 4.11323
rclavicle 1.57537e-014 3.18055e-015
rhumerus 168.471 -0.725348 -177.246
rradius 13.8437
rwrist 137.331
rhand -11.8982 8.53305
rfingers 7.12502
rthumb 14.1551 -20.9647
lclavicle 1.57537e-014 3.18055e-015
lhumerus -0.61062 14.8014 -4.6832
lradius 20.3957
lwrist -36.0815
lhand 5.48438 36.468
lfingers 7.12502
lthumb 30.8319 63.9014
rfemur -13.664 3.71273 23.2966
rtibia 33.8004
rfoot -53.1853 -30.9771
rtoes 53.6844
lfemur -67.643 11.8903 -32.8129
ltibia 62.1918
lfoot -31.2368 8.52144
ltoes -44.2658
792
root 5.25116 15.422 -10.8402 36.1996 -26.0983 -2.59638
lowerback -11.9774 0.341617 -12.8667
upperback -15.323 0.320315 -7.18334
thorax -10.3388 0.89306 -0.742019
lowerneck -10.4782 5.74943 1.66255
upperneck 20.0197 5.23304 11.7258
head 7.62839 3.71631 4.09296
rclavicle 1.52816e-014 4.77083e-014
rhumerus 168.624 -1.3358 -177.596
rradius 13.5899
rwrist 136.303
rhand -12.0424 8.27629
rfingers 7.12502
rthumb 14.0162 -21.2312
lclavicle 1.52816e-014 4.77083e-014
lhumerus -0.402255 16.7613 -4.12774
lradius 19.6623
lwrist -38.923
lhand 4.54277 33.0403
lfingers 7.12502
lthumb 29.9338 60.6395
rfemur -13.6114 3.31413 23.2379
rtibia 34.0323
rfoot -54.8942 -29.7363
rtoes 53.2122
lfemur -66.9669 10.7336 -31.5173
ltibia 62.2131
lfoot -31.5544 7.47577
ltoes -44.0513
793
root 5.26947 15.4209 -10.8728 35.6383 -27.0839 -1.98827
lowerback -11.2808 0.477677 -13.7478
upperback -15.2772 0.39234 -7.38697
thorax -10.7603 1.01555 -0.519418
lowerneck -10.1574 5.70638 1.61923
upperneck 19.8432 5.21072 11.7325
head 7.51091 3.68908 4.07821
rclavicle 2.04655e-014 8.5875e-014
rhumerus 168.624 -3.10382 -177.838
rradius 13.5464
rwrist 134.527
rhand -12.1884 8.04164
rfingers 7.12502
rthumb 13.8755 -21.4755
lclavicle 2.04655e-014 8.5875e-014
lhumerus -0.239812 17.3917 -3.4794
lradius 19.4492
lwrist -39.8163
lhand 4.28881 31.6769
lfingers 7.12502
lthumb 29.6914 59.3196
rfemur -13.7529 3.82211 22.4982
rtibia 34.2925
rfoot -57.2124 -28.5144
rtoes 53.1658
lfemur -66.2971 9.66524 -31.1551
ltibia 62.0724
lfoot -31.6704 6.92381
ltoes -43.4872
794
root 5.29065 15.4133 -10.8954 35.5611 -27.8274 -1.81285
lowerback -11.0595 0.634318 -14.0179
upperback -15.1893 0.566366 -7.52983
thorax -10.8197 1.11721 -0.53451
lowerneck -10.2478 5.65269 1.65373
upperneck 19.8175 5.13902 11.6592
head 7.52671 3.65117 4.04502
rclavicle 4.19933e-015 5.40694e-014
rhumerus 168.537 -5.38731 -178.012
rradius 13.6736
rwrist 131.885
rhand -12.0158 8.02093
rfingers 7.12502
rthumb 14.0417 -21.4847
lclavicle 4.19933e-015 5.40694e-014
lhumerus -0.142951 16.0143 -2.79757
lradius 19.957
lwrist -37.6195
lhand 4.7508 33.9337
lfingers 7.12502
lthumb 30.1322 61.4969
rfemur -14.0696 3.69119 22.0794
rtibia 34.4579
rfoot -58.7991 -26.8677
rtoes 53.411
lfemur -66.1271 8.71207 -30.7118
ltibia 62.0014
lfoot -31.5579 7.4968
ltoes -43.3267
795
root 5.3116 15.4119 -10.9033 35.6532 -28.4835 -1.84395
lowerback -10.9949 0.793708 -13.921
upperback -15.067 0.765388 -7.6863
thorax -10.7166 1.18552 -0.748286
lowerneck -10.5357 5.6601 1.82905
upperneck 19.7894 5.12086 11.5552
head 7.58143 3.65097 3.99174
rclavicle -5.58088e-014 6.67916e-014
rhumerus 168.47 -7.21706 -178.379
rradius 13.5783
rwrist 129.349
rhand -11.9409 7.78309
rfingers 7.12502
rthumb 14.114 -21.7176
lclavicle -5.58088e-014 6.67916e-014
lhumerus -0.173698 17.4951 -2.1779
lradius 19.7025
lwrist -39.5366
lhand 3.98763 32.382
lfingers 7.12502
lthumb 29.4039 60.0756
rfemur -14.3932 3.13433 21.7722
rtibia 34.6066
rfoot -59.5159 -25.9263
rtoes 53.376
lfemur -66.0633 8.00987 -30.4206
ltibia 61.867
lfoot -31.4366 8.19955
ltoes -41.8184
796
root 5.33117 15.4142 -10.9039 35.6701 -29.2268 -1.68886
lowerback -10.9443 0.927027 -13.9712
upperback -15.0168 0.922036 -7.86867
thorax -10.7033 1.24952 -0.920668
lowerneck -10.7159 5.70899 2.03945
upperneck 19.8436 5.16695 11.3753
head 7.64348 3.67665 3.91235
rclavicle 4.46272e-014 7.95139e-014
rhumerus 168.412 -8.46826 -178.845
rradius 13.2841
rwrist 127.703
rhand -12.0613 7.21878
rfingers 7.12502
rthumb 13.9979 -22.2899
lclavicle 4.46272e-014 7.95139e-014
lhumerus -0.130886 18.9027 -1.44354
lradius 19.5821
lwrist -40.915
lhand 3.56198 31.4319
lfingers 7.12502
lthumb 28.9974 59.1961
rfemur -14.6187 2.6307 21.2474
rtibia 34.622
rfoot -59.9664 -25.5881
rtoes 53.5026
lfemur -65.9883 7.38592 -30.5261
ltibia 61.7264
lfoot -31.551 8.86845
ltoes -39.2455
797
root 5.35687 15.4121 -10.9116 35.644 -29.8369 -1.46552
lowerback -10.7238 1.07269 -14.0175
upperback -15.0478 1.05347 -7.9999
thorax -10.8863 1.31398 -1.05435
lowerneck -10.6376 5.70958 2.04044
upperneck 19.9104 5.18865 11.255
head 7.65323 3.67515 3.87375
rclavicle -6.99722e-014 -1.27222e-014
rhumerus 168.246 -10.1158 -179.178
rradius 13.1677
rwrist 126.015
rhand -12.1327 7.02503
rfingers 7.12502
rthumb 13.9291 -22.4884
lclavicle -6.99722e-014 -1.27222e-014
lhumerus 0.0663161 20.4875 -0.3905
lradius 19.3796
lwrist -42.2969
lhand 3.24212 30.7524
lfingers 7.12502
lthumb 28.6919 58.5687
rfemur -14.8694 2.1288 20.7935
rtibia 34.568
rfoot -59.8173 -26.7553
rtoes 53.3386
lfemur -65.9618 6.57823 -30.6811
ltibia 61.57
lfoot -31.4081 10.286
ltoes -37.1812
798
root 5.38712 15.3999 -10.9253 35.8579 -30.2774 -1.55724
lowerback -10.573 1.26062 -13.7106
upperback -15.0105 1.26136 -8.09978
thorax -10.9161 1.37769 -1.32828
lowerneck -10.5528 5.65818 2.01502
upperneck 19.6396 5.18192 11.0846
head 7.55226 3.64356 3.8052
rclavicle 4.80065e-014 -6.67916e-014
rhumerus 168.133 -12.0489 -179.457
rradius 13.08
rwrist 123.731
rhand -11.8519 6.95116
rfingers 7.12502
rthumb 14.1997 -22.5435
lclavicle 4.80065e-014 -6.67916e-014
lhumerus 0.308087 21.3204 0.555099
lradius 19.2033
lwrist -42.7615
lhand 3.04597 30.658
lfingers 7.12502
lthumb 28.5045 58.5059
rfemur -15.1695 2.0824 20.7395
rtibia 34.4821
rfoot -60.4589 -26.7029
rtoes 53.6323
lfemur -66.198 5.67603 -30.4304
ltibia 61.4733
lfoot -31.2879 12.0517
ltoes -35.6895
799
root 5.41587 15.4015 -10.9315 36.058 -31.1731 -1.4912
lowerback -10.6114 1.47851 -13.7661
upperback -14.937 1.55753 -8.25157
thorax -10.831 1.51212 -1.45889
lowerneck -10.6144 5.66026 2.00733
upperneck 19.3858 5.24447 10.8709
head 7.48211 3.64649 3.73278
rclavicle -1.72943e-014 3.49861e-014
rhumerus 168.055 -13.4145 -179.761
rradius 12.8744
rwrist 121.622
rhand -11.6026 6.85655
rfingers 7.12502
rthumb 14.4399 -22.6211
lclavicle -1.72943e-014 3.49861e-014
lhumerus 0.41405 21.5975 1.3739
lradius 19.1639
lwrist -42.5647
lhand 2.94849 30.8506
lfingers 7.12502
lthumb 28.4113 58.714
rfemur -15.5576 2.61494 20.2746
rtibia 34.4429
rfoot -62.119 -24.6832
rtoes 54.7191
lfemur -66.4715 4.73713 -30.31
ltibia 61.396
lfoot -31.333 14.4678
ltoes -35.8662
800
root 5.44884 15.4129 -10.9369 36.1821 -32.1444 -1.35978
lowerback -10.4258 1.69043 -13.8908
upperback -15.015 1.77826 -8.36454
thorax -11.0661 1.63071 -1.53955
lowerneck -10.4694 5.7279 2.07504
upperneck 19.2518 5.399 10.5823
head 7.41469 3.69082 3.62845
rclavicle -4.25399e-014 -5.725e-014
rhumerus 167.699 -14.7482 -180.013
rradius 12.9728
rwrist 119.694
rhand -11.0167 7.06555
rfingers 7.12502
rthumb 15.0044 -22.3708
lclavicle -4.25399e-014 -5.725e-014
lhumerus 0.338016 20.8488 2.0943
lradius 19.3015
lwrist -41.3079
lhand 2.99563 31.5705
lfingers 7.12502
lthumb 28.4564 59.4265
rfemur -15.9996 3.16713 19.7115
rtibia 34.4235
rfoot -63.1729 -24.3393
rtoes 54.9818
lfemur -66.6854 3.64412 -30.0626
ltibia 61.4158
lfoot -31.6725 16.0128
ltoes -34.0333
